<svg width="1760" height="514" viewBox="0 0 1760 514" fill="none" xmlns="http://www.w3.org/2000/svg">
<path d="M1479.95 361.726C1377.81 361.726 1320.11 304.701 1320.11 203.997C1320.11 103.292 1377.81 46.2673 1479.95 46.2673C1582.1 46.2673 1639.8 103.292 1639.8 203.997C1639.8 304.701 1582.1 361.726 1479.95 361.726ZM1480.34 258.595C1512.7 258.595 1530.64 239.182 1530.64 203.997C1530.64 168.811 1512.7 149.398 1480.34 149.398C1447.6 149.398 1429.27 168.811 1429.27 203.997C1429.27 239.182 1447.6 258.595 1480.34 258.595Z" fill="#FF6B01"/>
<path d="M1182.21 222.196L1289.04 240.396C1272.27 318.047 1218.86 361.726 1140.89 361.726C1043.42 361.726 988.841 304.701 988.841 203.997C988.841 103.292 1043.42 46.2673 1140.89 46.2673C1219.25 46.2673 1272.66 89.9462 1289.04 167.598L1182.21 185.797C1177.53 162.744 1162.72 149.398 1141.28 149.398C1113.6 149.398 1098 168.811 1098 203.997C1098 239.182 1113.6 258.595 1141.28 258.595C1163.11 258.595 1177.92 245.249 1182.21 222.196Z" fill="#FF6B01"/>
<path d="M878.264 308.341H760.135L741.032 355.659H635.769L765.204 52.3338H874.365L1002.24 355.659H896.977L878.264 308.341ZM846.685 229.476L819.784 161.531L792.104 229.476H846.685Z" fill="#FF6B01"/>
<path d="M584.748 224.623C603.851 241.609 613.988 269.515 613.988 306.521V355.659H516.522V281.041C516.522 256.775 503.267 243.429 479.485 243.429H432.702V355.659H323.54V52.3338H521.98C582.019 52.3338 615.937 87.5196 615.937 149.398C615.937 183.37 605.021 208.85 584.748 224.623ZM495.08 164.564C509.894 164.564 518.471 159.711 518.471 151.218C518.471 142.118 509.894 137.265 495.08 137.265H432.702V164.564H495.08Z" fill="#FF6B01"/>
<path d="M198.44 52.3338C258.479 52.3338 292.397 88.1262 292.397 151.218C292.397 214.31 258.479 249.495 198.44 249.495H109.161V355.659H0V52.3338H198.44ZM171.539 164.564C186.354 164.564 194.931 159.711 194.931 151.218C194.931 142.725 186.354 137.872 171.539 137.265H109.161V164.564H171.539Z" fill="#FF6B01"/>
<path fill-rule="evenodd" clip-rule="evenodd" d="M1713.81 83.0708C1734.1 83.0708 1750.55 66.5933 1750.55 46.2673C1750.55 25.9413 1734.1 9.46376 1713.81 9.46376C1693.52 9.46376 1677.07 25.9413 1677.07 46.2673C1677.07 66.5933 1693.52 83.0708 1713.81 83.0708ZM1713.81 92.5345C1739.32 92.5345 1760 71.82 1760 46.2673C1760 20.7146 1739.32 0 1713.81 0C1688.3 0 1667.62 20.7146 1667.62 46.2673C1667.62 71.82 1688.3 92.5345 1713.81 92.5345Z" fill="#545454"/>
<path d="M1699.73 67.8236V24.233H1716.05C1719.39 24.233 1722.2 24.8147 1724.46 25.9783C1726.74 27.1418 1728.47 28.7737 1729.63 30.8737C1730.8 32.9596 1731.39 35.3931 1731.39 38.1743C1731.39 40.9697 1730.8 43.3961 1729.61 45.4536C1728.43 47.4969 1726.7 49.0791 1724.4 50.2001C1722.11 51.3068 1719.29 51.8602 1715.94 51.8602H1704.32V45.3046H1714.88C1716.84 45.3046 1718.44 45.035 1719.68 44.4958C1720.93 43.9424 1721.85 43.1407 1722.45 42.0907C1723.05 41.0264 1723.36 39.721 1723.36 38.1743C1723.36 36.6276 1723.05 35.308 1722.45 34.2154C1721.84 33.1086 1720.91 32.2714 1719.66 31.7038C1718.41 31.122 1716.81 30.8312 1714.84 30.8312H1707.61V67.8236H1699.73ZM1722.21 48.0716L1732.98 67.8236H1724.19L1713.61 48.0716H1722.21Z" fill="#545454"/>
<path d="M1617.18 514C1608.72 514 1601.57 512.288 1595.74 508.864C1589.99 505.363 1585.91 500.499 1583.51 494.274L1600.29 488.205C1601.37 491.94 1603.39 494.702 1606.35 496.492C1609.38 498.282 1613.03 499.177 1617.3 499.177C1619.55 499.177 1621.73 498.943 1623.83 498.476C1625.92 497.932 1627.67 497.076 1629.07 495.908C1630.47 494.663 1631.17 493.029 1631.17 491.006C1631.17 488.283 1629.85 486.182 1627.2 484.703C1624.56 483.147 1621.15 481.98 1616.95 481.202L1607.51 479.334C1603.32 478.478 1599.39 477.194 1595.74 475.482C1592.17 473.693 1589.29 471.358 1587.12 468.479C1584.94 465.522 1583.86 461.826 1583.86 457.391C1583.86 453.189 1584.83 449.571 1586.77 446.536C1588.71 443.501 1591.27 441.011 1594.46 439.066C1597.72 437.121 1601.3 435.681 1605.18 434.747C1609.06 433.736 1612.95 433.23 1616.83 433.23C1621.03 433.23 1625.07 433.814 1628.95 434.981C1632.91 436.148 1636.45 437.977 1639.56 440.467C1642.66 442.879 1645.03 446.108 1646.66 450.154L1630 456.224C1628.99 453.578 1627.17 451.555 1624.52 450.154C1621.96 448.754 1618.85 448.053 1615.2 448.053C1611.63 448.053 1608.64 448.715 1606.23 450.038C1603.9 451.283 1602.73 453.111 1602.73 455.523C1602.73 457.469 1603.55 459.142 1605.18 460.542C1606.81 461.943 1608.95 462.916 1611.59 463.46L1622.08 465.561C1625.26 466.184 1628.49 467.001 1631.75 468.012C1635.01 468.946 1638 470.23 1640.72 471.864C1643.52 473.42 1645.77 475.521 1647.48 478.167C1649.19 480.813 1650.04 484.159 1650.04 488.205C1650.04 492.329 1649.07 496.025 1647.13 499.293C1645.27 502.484 1642.74 505.168 1639.56 507.347C1636.45 509.526 1632.95 511.199 1629.07 512.366C1625.18 513.455 1621.22 514 1617.18 514Z" fill="#242424"/>
<path d="M1494.82 512.599V434.631H1554.71V450.855H1513.23V464.394H1538.52V480.618H1513.23V496.375H1554.71V512.599H1494.82Z" fill="#242424"/>
<path d="M1419.66 512.599V498.126H1430.61V449.104H1419.66V434.631H1459.74V449.104H1449.02V498.126H1459.74V512.599H1419.66Z" fill="#242424"/>
<path d="M1332.25 512.599V434.631H1350.66V496.375H1387.95V512.599H1332.25Z" fill="#242424"/>
<path d="M1236 512.599V434.631H1265.95C1272.7 434.631 1278.73 435.331 1284.01 436.732C1289.37 438.132 1293.56 440.661 1296.59 444.318C1299.7 447.976 1301.25 453.228 1301.25 460.075C1301.25 466.845 1299.7 472.098 1296.59 475.833C1293.56 479.49 1289.37 482.019 1284.01 483.419C1278.73 484.82 1272.7 485.52 1265.95 485.52H1254.41V512.599H1236ZM1254.41 470.23H1266.53C1269.4 470.23 1271.97 469.958 1274.22 469.413C1276.55 468.868 1278.38 467.857 1279.7 466.378C1281.09 464.9 1281.79 462.799 1281.79 460.075C1281.79 457.352 1281.09 455.29 1279.7 453.889C1278.38 452.411 1276.55 451.438 1274.22 450.971C1271.97 450.427 1269.4 450.154 1266.53 450.154H1254.41V470.23Z" fill="#242424"/>
<path d="M1139.75 512.599V434.631H1169.7C1176.46 434.631 1182.48 435.331 1187.76 436.732C1193.12 438.132 1197.31 440.661 1200.34 444.318C1203.45 447.976 1205 453.228 1205 460.075C1205 466.845 1203.45 472.098 1200.34 475.833C1197.31 479.49 1193.12 482.019 1187.76 483.419C1182.48 484.82 1176.46 485.52 1169.7 485.52H1158.16V512.599H1139.75ZM1158.16 470.23H1170.28C1173.15 470.23 1175.72 469.958 1177.97 469.413C1180.3 468.868 1182.13 467.857 1183.45 466.378C1184.85 464.9 1185.54 462.799 1185.54 460.075C1185.54 457.352 1184.85 455.29 1183.45 453.889C1182.13 452.411 1180.3 451.438 1177.97 450.971C1175.72 450.427 1173.15 450.154 1170.28 450.154H1158.16V470.23Z" fill="#242424"/>
<path d="M1072.73 514C1060.54 514 1051.88 511.082 1046.75 505.246C1041.7 499.41 1039.17 490.5 1039.17 478.517V434.631H1057.59V480.035C1057.59 483.847 1057.94 487.193 1058.63 490.072C1059.41 492.874 1060.89 495.053 1063.06 496.609C1065.24 498.165 1068.46 498.943 1072.73 498.943C1077.01 498.943 1080.19 498.165 1082.29 496.609C1084.47 495.053 1085.9 492.874 1086.6 490.072C1087.38 487.193 1087.77 483.847 1087.77 480.035V434.631H1106.18V478.517C1106.18 490.5 1103.61 499.41 1098.49 505.246C1093.36 511.082 1084.78 514 1072.73 514Z" fill="#242424"/>
<path d="M975.184 514C966.716 514 959.569 512.288 953.742 508.864C947.994 505.363 943.915 500.499 941.507 494.274L958.287 488.205C959.375 491.94 961.394 494.702 964.346 496.492C967.376 498.282 971.027 499.177 975.3 499.177C977.553 499.177 979.728 498.943 981.826 498.476C983.923 497.932 985.671 497.076 987.07 495.908C988.468 494.663 989.167 493.029 989.167 491.006C989.167 488.283 987.846 486.182 985.205 484.703C982.564 483.147 979.146 481.98 974.951 481.202L965.512 479.334C961.317 478.478 957.394 477.194 953.742 475.482C950.169 473.693 947.294 471.358 945.119 468.479C942.944 465.522 941.856 461.826 941.856 457.391C941.856 453.189 942.828 449.571 944.77 446.536C946.712 443.501 949.275 441.011 952.461 439.066C955.723 437.121 959.297 435.681 963.181 434.747C967.065 433.736 970.95 433.23 974.834 433.23C979.029 433.23 983.069 433.814 986.953 434.981C990.915 436.148 994.45 437.977 997.557 440.467C1000.66 442.879 1003.03 446.108 1004.67 450.154L988.002 456.224C986.992 453.578 985.166 451.555 982.525 450.154C979.961 448.754 976.854 448.053 973.203 448.053C969.629 448.053 966.638 448.715 964.23 450.038C961.899 451.283 960.734 453.111 960.734 455.523C960.734 457.469 961.55 459.142 963.181 460.542C964.813 461.943 966.949 462.916 969.59 463.46L980.078 465.561C983.263 466.184 986.487 467.001 989.75 468.012C993.012 468.946 996.003 470.23 998.722 471.864C1001.52 473.42 1003.77 475.521 1005.48 478.167C1007.19 480.813 1008.04 484.159 1008.04 488.205C1008.04 492.329 1007.07 496.025 1005.13 499.293C1003.27 502.484 1000.74 505.168 997.557 507.347C994.45 509.526 990.954 511.199 987.07 512.366C983.185 513.455 979.223 514 975.184 514Z" fill="#242424"/>
<path d="M811.92 514C804.307 514 797.742 512.366 792.227 509.098C786.711 505.752 782.438 501.044 779.409 494.975C776.456 488.827 774.98 481.63 774.98 473.382C774.98 465.133 776.651 458.013 779.991 452.022C783.332 446.03 787.954 441.4 793.858 438.132C799.84 434.864 806.754 433.23 814.6 433.23C821.436 433.23 827.574 434.592 833.012 437.315C838.527 440.039 842.839 444.046 845.946 449.337L830.098 455.874C828.855 453.85 826.913 452.1 824.272 450.621C821.708 449.143 818.407 448.404 814.367 448.404C810.716 448.404 807.375 449.337 804.346 451.205C801.316 453.072 798.908 455.874 797.121 459.609C795.334 463.266 794.441 467.857 794.441 473.382C794.441 481.552 796.305 487.855 800.034 492.29C803.763 496.648 808.657 498.826 814.717 498.826C817.591 498.826 820.349 498.437 822.99 497.659C825.631 496.803 827.807 495.403 829.516 493.457C831.225 491.512 832.079 488.905 832.079 485.637V483.419H814.6V468.479H850.491V512.599H838.372L835.808 503.962C830.836 510.654 822.874 514 811.92 514Z" fill="#242424"/>
<path d="M671.132 512.599V434.631H694.554L724.618 490.189V434.631H742.447V512.599H718.908L688.844 457.041V512.599H671.132Z" fill="#242424"/>
<path d="M595.97 512.599V498.126H606.924V449.104H595.97V434.631H636.056V449.104H625.335V498.126H636.056V512.599H595.97Z" fill="#242424"/>
<path d="M523.285 514C515.672 514 509.107 512.366 503.591 509.098C498.076 505.752 493.803 501.044 490.773 494.975C487.821 488.827 486.345 481.63 486.345 473.382C486.345 465.133 488.016 458.013 491.356 452.022C494.696 446.03 499.319 441.4 505.223 438.132C511.205 434.864 518.119 433.23 525.965 433.23C532.801 433.23 538.939 434.592 544.377 437.315C549.892 440.039 554.204 444.046 557.311 449.337L541.463 455.874C540.22 453.85 538.278 452.1 535.637 450.621C533.073 449.143 529.772 448.404 525.732 448.404C522.081 448.404 518.74 449.337 515.71 451.205C512.681 453.072 510.272 455.874 508.486 459.609C506.699 463.266 505.806 467.857 505.806 473.382C505.806 481.552 507.67 487.855 511.399 492.29C515.128 496.648 520.022 498.826 526.081 498.826C528.956 498.826 531.714 498.437 534.355 497.659C536.996 496.803 539.171 495.403 540.881 493.457C542.59 491.512 543.444 488.905 543.444 485.637V483.419H525.965V468.479H561.856V512.599H549.737L547.173 503.962C542.201 510.654 534.238 514 523.285 514Z" fill="#242424"/>
<path d="M383.413 512.599L412.895 434.631H433.171L462.652 512.599H442.609L437.948 498.71H408.117L403.456 512.599H383.413ZM413.128 483.77H432.938L422.916 454.123L413.128 483.77Z" fill="#242424"/>
<path d="M287.839 512.599V434.631H306.25V465.561L334.333 434.631H356.823L326.06 468.012L358.338 512.599H337.014L314.174 480.852L306.25 489.606V512.599H287.839Z" fill="#242424"/>
<path d="M223.999 514C215.92 514 208.967 512.366 203.14 509.098C197.314 505.83 192.847 501.161 189.74 495.091C186.632 489.022 185.079 481.863 185.079 473.615C185.079 465.367 186.671 458.247 189.856 452.255C193.119 446.186 197.702 441.517 203.607 438.249C209.511 434.903 216.464 433.23 224.465 433.23C231.845 433.23 238.254 434.864 243.692 438.132C249.208 441.4 253.442 445.797 256.394 451.322L240.08 457.274C238.371 454.084 236.04 451.827 233.088 450.504C230.136 449.104 227.068 448.404 223.883 448.404C220.309 448.404 217.046 449.415 214.094 451.438C211.142 453.384 208.812 456.263 207.102 460.075C205.393 463.811 204.539 468.324 204.539 473.615C204.539 481.785 206.403 488.049 210.132 492.407C213.939 496.687 218.6 498.826 224.116 498.826C227.068 498.826 230.097 498.204 233.205 496.959C236.39 495.714 238.876 493.418 240.663 490.072L256.86 496.025C253.753 501.55 249.325 505.946 243.576 509.214C237.905 512.405 231.379 514 223.999 514Z" fill="#242424"/>
<path d="M82.1462 512.599L111.628 434.631H131.904L161.386 512.599H141.343L136.682 498.71H106.85L102.189 512.599H82.1462ZM111.861 483.77H131.671L121.649 454.123L111.861 483.77Z" fill="#242424"/>
<path d="M0 512.599V434.631H29.9478C36.7065 434.631 42.7271 435.331 48.0097 436.732C53.37 438.132 57.5651 440.661 60.5948 444.318C63.7022 447.976 65.256 453.228 65.256 460.075C65.256 466.845 63.7022 472.098 60.5948 475.833C57.5651 479.49 53.37 482.019 48.0097 483.419C42.7271 484.82 36.7065 485.52 29.9478 485.52H18.4115V512.599H0ZM18.4115 470.23H30.5305C33.4048 470.23 35.9685 469.958 38.2213 469.413C40.5519 468.868 42.3775 467.857 43.6982 466.378C45.0965 464.9 45.7957 462.799 45.7957 460.075C45.7957 457.352 45.0965 455.29 43.6982 453.889C42.3775 452.411 40.5519 451.438 38.2213 450.971C35.9685 450.427 33.4048 450.154 30.5305 450.154H18.4115V470.23Z" fill="#242424"/>
</svg>
