<svg width="3353" height="978" viewBox="0 0 3353 978" fill="none" xmlns="http://www.w3.org/2000/svg">
<path d="M2819.48 688C2624.88 688 2514.96 579.538 2514.96 388C2514.96 196.462 2624.88 88 2819.48 88C3014.08 88 3124 196.462 3124 388C3124 579.538 3014.08 688 2819.48 688ZM2820.22 491.846C2881.87 491.846 2916.04 454.923 2916.04 388C2916.04 321.077 2881.87 284.154 2820.22 284.154C2757.83 284.154 2722.93 321.077 2722.93 388C2722.93 454.923 2757.83 491.846 2820.22 491.846Z" fill="#FF6A01"/>
<path d="M2252.25 422.615L2455.76 457.231C2423.82 604.923 2322.07 688 2173.52 688C1987.84 688 1883.86 579.538 1883.86 388C1883.86 196.462 1987.84 88 2173.52 88C2322.81 88 2424.56 171.077 2455.76 318.769L2252.25 353.385C2243.34 309.538 2215.11 284.154 2174.26 284.154C2121.53 284.154 2091.82 321.077 2091.82 388C2091.82 454.923 2121.53 491.846 2174.26 491.846C2215.86 491.846 2244.08 466.462 2252.25 422.615Z" fill="#FF6A01"/>
<path d="M1673.19 586.462H1448.14L1411.75 676.462H1211.21L1457.8 99.5384H1665.76L1909.38 676.462H1708.84L1673.19 586.462ZM1613.03 436.462L1561.78 307.231L1509.05 436.462H1613.03Z" fill="#FF6A01"/>
<path d="M1114.01 427.231C1150.41 459.538 1169.72 512.615 1169.72 583V676.462H984.033V534.538C984.033 488.385 958.78 463 913.474 463H824.346V676.462H616.381V99.5384H994.431C1108.81 99.5384 1173.43 166.462 1173.43 284.154C1173.43 348.769 1152.63 397.231 1114.01 427.231ZM943.183 313C971.407 313 987.747 303.769 987.747 287.615C987.747 270.308 971.407 261.077 943.183 261.077H824.346V313H943.183Z" fill="#FF6A01"/>
<path d="M378.051 99.5384C492.431 99.5384 557.049 167.615 557.049 287.615C557.049 407.615 492.431 474.538 378.051 474.538H207.965V676.462H0V99.5384H378.051ZM326.802 313C355.026 313 371.366 303.769 371.366 287.615C371.366 271.462 355.026 262.231 326.802 261.077H207.965V313H326.802Z" fill="#FF6A01"/>
<path fill-rule="evenodd" clip-rule="evenodd" d="M3265 158C3303.66 158 3335 126.66 3335 88C3335 49.3401 3303.66 18 3265 18C3226.34 18 3195 49.3401 3195 88C3195 126.66 3226.34 158 3265 158ZM3265 176C3313.6 176 3353 136.601 3353 88C3353 39.3989 3313.6 0 3265 0C3216.4 0 3177 39.3989 3177 88C3177 136.601 3216.4 176 3265 176Z" fill="#AAAAAA"/>
<path d="M3238.18 129V46.0909H3269.27C3275.64 46.0909 3280.98 47.1974 3285.3 49.4105C3289.65 51.6236 3292.92 54.7273 3295.14 58.7216C3297.38 62.6889 3298.5 67.3175 3298.5 72.6072C3298.5 77.924 3297.36 82.5391 3295.1 86.4524C3292.86 90.3388 3289.55 93.348 3285.18 95.4801C3280.81 97.5852 3275.44 98.6378 3269.07 98.6378H3246.92V86.169H3267.04C3270.77 86.169 3273.82 85.6562 3276.19 84.6307C3278.57 83.5781 3280.32 82.0533 3281.45 80.0561C3282.61 78.032 3283.19 75.549 3283.19 72.6072C3283.19 69.6655 3282.61 67.1555 3281.45 65.0774C3280.29 62.9723 3278.53 61.38 3276.15 60.3004C3273.78 59.1939 3270.71 58.6406 3266.96 58.6406H3253.2V129H3238.18ZM3281.01 91.4318L3301.53 129H3284.77L3264.61 91.4318H3281.01Z" fill="#AAAAAA"/>
<path d="M3080.92 977.624C3064.79 977.624 3051.17 974.368 3040.07 967.856C3029.12 961.196 3021.35 951.946 3016.76 940.106L3048.73 928.562C3050.8 935.666 3054.65 940.92 3060.27 944.324C3066.04 947.728 3073 949.43 3081.14 949.43C3085.43 949.43 3089.58 948.986 3093.57 948.098C3097.57 947.062 3100.9 945.434 3103.56 943.214C3106.23 940.846 3107.56 937.738 3107.56 933.89C3107.56 928.71 3105.04 924.714 3100.01 921.902C3094.98 918.942 3088.47 916.722 3080.47 915.242L3062.49 911.69C3054.5 910.062 3047.03 907.62 3040.07 904.364C3033.26 900.96 3027.79 896.52 3023.64 891.044C3019.5 885.42 3017.43 878.39 3017.43 869.954C3017.43 861.962 3019.28 855.08 3022.98 849.308C3026.68 843.536 3031.56 838.8 3037.63 835.1C3043.84 831.4 3050.65 828.662 3058.05 826.886C3065.45 824.962 3072.85 824 3080.25 824C3088.24 824 3095.94 825.11 3103.34 827.33C3110.89 829.55 3117.62 833.028 3123.54 837.764C3129.46 842.352 3133.98 848.494 3137.08 856.19L3105.34 867.734C3103.41 862.702 3099.94 858.854 3094.9 856.19C3090.02 853.526 3084.1 852.194 3077.14 852.194C3070.34 852.194 3064.64 853.452 3060.05 855.968C3055.61 858.336 3053.39 861.814 3053.39 866.402C3053.39 870.102 3054.94 873.284 3058.05 875.948C3061.16 878.612 3065.23 880.462 3070.26 881.498L3090.24 885.494C3096.31 886.678 3102.45 888.232 3108.67 890.156C3114.88 891.932 3120.58 894.374 3125.76 897.482C3131.09 900.442 3135.38 904.438 3138.64 909.47C3141.89 914.502 3143.52 920.866 3143.52 928.562C3143.52 936.406 3141.67 943.436 3137.97 949.652C3134.42 955.72 3129.61 960.826 3123.54 964.97C3117.62 969.114 3110.96 972.296 3103.56 974.516C3096.16 976.588 3088.61 977.624 3080.92 977.624Z" fill="#F7F7F7"/>
<path d="M2847.8 974.96V826.664H2961.91V857.522H2882.88V883.274H2931.05V914.132H2882.88V944.102H2961.91V974.96H2847.8Z" fill="#F7F7F7"/>
<path d="M2704.61 974.96V947.432H2725.48V854.192H2704.61V826.664H2780.98V854.192H2760.55V947.432H2780.98V974.96H2704.61Z" fill="#F7F7F7"/>
<path d="M2538.08 974.96V826.664H2573.16V944.102H2644.2V974.96H2538.08Z" fill="#F7F7F7"/>
<path d="M2354.72 974.96V826.664H2411.77C2424.65 826.664 2436.12 827.996 2446.18 830.66C2456.39 833.324 2464.39 838.134 2470.16 845.09C2476.08 852.046 2479.04 862.036 2479.04 875.06C2479.04 887.936 2476.08 897.926 2470.16 905.03C2464.39 911.986 2456.39 916.796 2446.18 919.46C2436.12 922.124 2424.65 923.456 2411.77 923.456H2389.79V974.96H2354.72ZM2389.79 894.374H2412.88C2418.36 894.374 2423.24 893.856 2427.53 892.82C2431.97 891.784 2435.45 889.86 2437.97 887.048C2440.63 884.236 2441.96 880.24 2441.96 875.06C2441.96 869.88 2440.63 865.958 2437.97 863.294C2435.45 860.482 2431.97 858.632 2427.53 857.744C2423.24 856.708 2418.36 856.19 2412.88 856.19H2389.79V894.374Z" fill="#F7F7F7"/>
<path d="M2171.35 974.96V826.664H2228.4C2241.28 826.664 2252.75 827.996 2262.81 830.66C2273.03 833.324 2281.02 838.134 2286.79 845.09C2292.71 852.046 2295.67 862.036 2295.67 875.06C2295.67 887.936 2292.71 897.926 2286.79 905.03C2281.02 911.986 2273.03 916.796 2262.81 919.46C2252.75 922.124 2241.28 923.456 2228.4 923.456H2206.43V974.96H2171.35ZM2206.43 894.374H2229.51C2234.99 894.374 2239.87 893.856 2244.17 892.82C2248.61 891.784 2252.08 889.86 2254.6 887.048C2257.26 884.236 2258.6 880.24 2258.6 875.06C2258.6 869.88 2257.26 865.958 2254.6 863.294C2252.08 860.482 2248.61 858.632 2244.17 857.744C2239.87 856.708 2234.99 856.19 2229.51 856.19H2206.43V894.374Z" fill="#F7F7F7"/>
<path d="M2043.68 977.624C2020.45 977.624 2003.94 972.074 1994.18 960.974C1984.56 949.874 1979.75 932.928 1979.75 910.136V826.664H2014.82V913.022C2014.82 920.274 2015.49 926.638 2016.82 932.114C2018.3 937.442 2021.11 941.586 2025.26 944.546C2029.4 947.506 2035.54 948.986 2043.68 948.986C2051.82 948.986 2057.89 947.506 2061.89 944.546C2066.03 941.586 2068.77 937.442 2070.1 932.114C2071.58 926.638 2072.32 920.274 2072.32 913.022V826.664H2107.4V910.136C2107.4 932.928 2102.51 949.874 2092.74 960.974C2082.98 972.074 2066.62 977.624 2043.68 977.624Z" fill="#F7F7F7"/>
<path d="M1857.84 977.624C1841.7 977.624 1828.09 974.368 1816.99 967.856C1806.04 961.196 1798.27 951.946 1793.68 940.106L1825.65 928.562C1827.72 935.666 1831.57 940.92 1837.19 944.324C1842.96 947.728 1849.92 949.43 1858.06 949.43C1862.35 949.43 1866.49 948.986 1870.49 948.098C1874.49 947.062 1877.82 945.434 1880.48 943.214C1883.14 940.846 1884.48 937.738 1884.48 933.89C1884.48 928.71 1881.96 924.714 1876.93 921.902C1871.9 918.942 1865.38 916.722 1857.39 915.242L1839.41 911.69C1831.42 910.062 1823.94 907.62 1816.99 904.364C1810.18 900.96 1804.7 896.52 1800.56 891.044C1796.42 885.42 1794.34 878.39 1794.34 869.954C1794.34 861.962 1796.19 855.08 1799.89 849.308C1803.59 843.536 1808.48 838.8 1814.55 835.1C1820.76 831.4 1827.57 828.662 1834.97 826.886C1842.37 824.962 1849.77 824 1857.17 824C1865.16 824 1872.86 825.11 1880.26 827.33C1887.81 829.55 1894.54 833.028 1900.46 837.764C1906.38 842.352 1910.89 848.494 1914 856.19L1882.26 867.734C1880.33 862.702 1876.85 858.854 1871.82 856.19C1866.94 853.526 1861.02 852.194 1854.06 852.194C1847.25 852.194 1841.56 853.452 1836.97 855.968C1832.53 858.336 1830.31 861.814 1830.31 866.402C1830.31 870.102 1831.86 873.284 1834.97 875.948C1838.08 878.612 1842.15 880.462 1847.18 881.498L1867.16 885.494C1873.23 886.678 1879.37 888.232 1885.59 890.156C1891.8 891.932 1897.5 894.374 1902.68 897.482C1908.01 900.442 1912.3 904.438 1915.56 909.47C1918.81 914.502 1920.44 920.866 1920.44 928.562C1920.44 936.406 1918.59 943.436 1914.89 949.652C1911.34 955.72 1906.53 960.826 1900.46 964.97C1894.54 969.114 1887.88 972.296 1880.48 974.516C1873.08 976.588 1865.53 977.624 1857.84 977.624Z" fill="#F7F7F7"/>
<path d="M1546.8 977.624C1532.3 977.624 1519.79 974.516 1509.28 968.3C1498.77 961.936 1490.63 952.982 1484.86 941.438C1479.24 929.746 1476.43 916.056 1476.43 900.368C1476.43 884.68 1479.61 871.138 1485.97 859.742C1492.34 848.346 1501.14 839.54 1512.39 833.324C1523.79 827.108 1536.96 824 1551.91 824C1564.93 824 1576.62 826.59 1586.98 831.77C1597.49 836.95 1605.7 844.572 1611.62 854.636L1581.43 867.068C1579.06 863.22 1575.36 859.89 1570.33 857.078C1565.45 854.266 1559.16 852.86 1551.46 852.86C1544.51 852.86 1538.14 854.636 1532.37 858.188C1526.6 861.74 1522.01 867.068 1518.61 874.172C1515.2 881.128 1513.5 889.86 1513.5 900.368C1513.5 915.908 1517.05 927.896 1524.16 936.332C1531.26 944.62 1540.58 948.764 1552.13 948.764C1557.6 948.764 1562.86 948.024 1567.89 946.544C1572.92 944.916 1577.07 942.252 1580.32 938.552C1583.58 934.852 1585.21 929.894 1585.21 923.678V919.46H1551.91V891.044H1620.28V974.96H1597.19L1592.31 958.532C1582.84 971.26 1567.67 977.624 1546.8 977.624Z" fill="#F7F7F7"/>
<path d="M1278.58 974.96V826.664H1323.2L1380.48 932.336V826.664H1414.45V974.96H1369.6L1312.33 869.288V974.96H1278.58Z" fill="#F7F7F7"/>
<path d="M1135.39 974.96V947.432H1156.26V854.192H1135.39V826.664H1211.76V854.192H1191.33V947.432H1211.76V974.96H1135.39Z" fill="#F7F7F7"/>
<path d="M996.917 977.624C982.413 977.624 969.907 974.516 959.399 968.3C948.891 961.936 940.751 952.982 934.979 941.438C929.355 929.746 926.543 916.056 926.543 900.368C926.543 884.68 929.725 871.138 936.089 859.742C942.453 848.346 951.259 839.54 962.507 833.324C973.903 827.108 987.075 824 1002.02 824C1015.05 824 1026.74 826.59 1037.1 831.77C1047.61 836.95 1055.82 844.572 1061.74 854.636L1031.55 867.068C1029.18 863.22 1025.48 859.89 1020.45 857.078C1015.57 854.266 1009.28 852.86 1001.58 852.86C994.623 852.86 988.259 854.636 982.487 858.188C976.715 861.74 972.127 867.068 968.723 874.172C965.319 881.128 963.617 889.86 963.617 900.368C963.617 915.908 967.169 927.896 974.273 936.332C981.377 944.62 990.701 948.764 1002.24 948.764C1007.72 948.764 1012.98 948.024 1018.01 946.544C1023.04 944.916 1027.18 942.252 1030.44 938.552C1033.69 934.852 1035.32 929.894 1035.32 923.678V919.46H1002.02V891.044H1070.4V974.96H1047.31L1042.43 958.532C1032.95 971.26 1017.78 977.624 996.917 977.624Z" fill="#F7F7F7"/>
<path d="M730.445 974.96L786.611 826.664H825.239L881.405 974.96H843.221L834.341 948.542H777.509L768.629 974.96H730.445ZM787.055 920.126H824.795L805.703 863.738L787.055 920.126Z" fill="#F7F7F7"/>
<path d="M548.365 974.96V826.664H583.441V885.494L636.943 826.664H679.789L621.181 890.156L682.675 974.96H642.049L598.537 914.576L583.441 931.226V974.96H548.365Z" fill="#F7F7F7"/>
<path d="M426.744 977.624C411.352 977.624 398.106 974.516 387.006 968.3C375.906 962.084 367.396 953.204 361.476 941.66C355.556 930.116 352.596 916.5 352.596 900.812C352.596 885.124 355.63 871.582 361.698 860.186C367.914 848.642 376.646 839.762 387.894 833.546C399.142 827.182 412.388 824 427.632 824C441.692 824 453.902 827.108 464.262 833.324C474.77 839.54 482.836 847.902 488.46 858.41L457.38 869.732C454.124 863.664 449.684 859.372 444.06 856.856C438.436 854.192 432.59 852.86 426.522 852.86C419.714 852.86 413.498 854.784 407.874 858.632C402.25 862.332 397.81 867.808 394.554 875.06C391.298 882.164 389.67 890.748 389.67 900.812C389.67 916.352 393.222 928.266 400.326 936.554C407.578 944.694 416.458 948.764 426.966 948.764C432.59 948.764 438.362 947.58 444.282 945.212C450.35 942.844 455.086 938.478 458.49 932.114L489.348 943.436C483.428 953.944 474.992 962.306 464.04 968.522C453.236 974.59 440.804 977.624 426.744 977.624Z" fill="#F7F7F7"/>
<path d="M156.498 974.96L212.664 826.664H251.292L307.458 974.96H269.274L260.394 948.542H203.562L194.682 974.96H156.498ZM213.108 920.126H250.848L231.756 863.738L213.108 920.126Z" fill="#F7F7F7"/>
<path d="M0 974.96V826.664H57.054C69.93 826.664 81.4 827.996 91.464 830.66C101.676 833.324 109.668 838.134 115.44 845.09C121.36 852.046 124.32 862.036 124.32 875.06C124.32 887.936 121.36 897.926 115.44 905.03C109.668 911.986 101.676 916.796 91.464 919.46C81.4 922.124 69.93 923.456 57.054 923.456H35.076V974.96H0ZM35.076 894.374H58.164C63.64 894.374 68.524 893.856 72.816 892.82C77.256 891.784 80.734 889.86 83.25 887.048C85.914 884.236 87.246 880.24 87.246 875.06C87.246 869.88 85.914 865.958 83.25 863.294C80.734 860.482 77.256 858.632 72.816 857.744C68.524 856.708 63.64 856.19 58.164 856.19H35.076V894.374Z" fill="#F7F7F7"/>
</svg>
